<svg width="1363" height="163" viewBox="0 0 1363 163" fill="none" xmlns="http://www.w3.org/2000/svg">
<path d="M0 15C0 6.71573 6.71573 0 15 0H37V163H15C6.71573 163 0 156.284 0 148V15Z" fill="#424242"/>
<rect width="1097" height="163" transform="translate(37)" fill="#F0F0F0"/>
<path d="M94.5234 43.9375H100.887C102.191 43.9375 103.312 44.1328 104.25 44.5234C105.195 44.9141 105.922 45.4922 106.43 46.2578C106.938 47.0234 107.191 47.9648 107.191 49.082C107.191 49.9961 107.035 50.7812 106.723 51.4375C106.418 52.0859 105.984 52.6289 105.422 53.0664C104.867 53.4961 104.215 53.8398 103.465 54.0977L102.352 54.6836H96.8203L96.7969 51.9414H100.91C101.527 51.9414 102.039 51.832 102.445 51.6133C102.852 51.3945 103.156 51.0898 103.359 50.6992C103.57 50.3086 103.676 49.8555 103.676 49.3398C103.676 48.793 103.574 48.3203 103.371 47.9219C103.168 47.5234 102.859 47.2188 102.445 47.0078C102.031 46.7969 101.512 46.6914 100.887 46.6914H98.0391V61H94.5234V43.9375ZM104.062 61L100.172 53.3945L103.887 53.3711L107.824 60.8359V61H104.062ZM116.531 58.1406V52.4922C116.531 52.0859 116.465 51.7383 116.332 51.4492C116.199 51.1523 115.992 50.9219 115.711 50.7578C115.438 50.5938 115.082 50.5117 114.645 50.5117C114.27 50.5117 113.945 50.5781 113.672 50.7109C113.398 50.8359 113.188 51.0195 113.039 51.2617C112.891 51.4961 112.816 51.7734 112.816 52.0938H109.441C109.441 51.5547 109.566 51.043 109.816 50.5586C110.066 50.0742 110.43 49.6484 110.906 49.2812C111.383 48.9062 111.949 48.6133 112.605 48.4023C113.27 48.1914 114.012 48.0859 114.832 48.0859C115.816 48.0859 116.691 48.25 117.457 48.5781C118.223 48.9062 118.824 49.3984 119.262 50.0547C119.707 50.7109 119.93 51.5312 119.93 52.5156V57.9414C119.93 58.6367 119.973 59.207 120.059 59.6523C120.145 60.0898 120.27 60.4727 120.434 60.8008V61H117.023C116.859 60.6562 116.734 60.2266 116.648 59.7109C116.57 59.1875 116.531 58.6641 116.531 58.1406ZM116.977 53.2773L117 55.1875H115.113C114.668 55.1875 114.281 55.2383 113.953 55.3398C113.625 55.4414 113.355 55.5859 113.145 55.7734C112.934 55.9531 112.777 56.1641 112.676 56.4062C112.582 56.6484 112.535 56.9141 112.535 57.2031C112.535 57.4922 112.602 57.7539 112.734 57.9883C112.867 58.2148 113.059 58.3945 113.309 58.5273C113.559 58.6523 113.852 58.7148 114.188 58.7148C114.695 58.7148 115.137 58.6133 115.512 58.4102C115.887 58.207 116.176 57.957 116.379 57.6602C116.59 57.3633 116.699 57.082 116.707 56.8164L117.598 58.2461C117.473 58.5664 117.301 58.8984 117.082 59.2422C116.871 59.5859 116.602 59.9102 116.273 60.2148C115.945 60.5117 115.551 60.7578 115.09 60.9531C114.629 61.1406 114.082 61.2344 113.449 61.2344C112.645 61.2344 111.914 61.0742 111.258 60.7539C110.609 60.4258 110.094 59.9766 109.711 59.4062C109.336 58.8281 109.148 58.1719 109.148 57.4375C109.148 56.7734 109.273 56.1836 109.523 55.668C109.773 55.1523 110.141 54.7188 110.625 54.3672C111.117 54.0078 111.73 53.7383 112.465 53.5586C113.199 53.3711 114.051 53.2773 115.02 53.2773H116.977ZM126.105 59.5703L129.469 48.3203H133.09L127.992 62.9102C127.883 63.2305 127.734 63.5742 127.547 63.9414C127.367 64.3086 127.121 64.6562 126.809 64.9844C126.504 65.3203 126.117 65.5938 125.648 65.8047C125.188 66.0156 124.621 66.1211 123.949 66.1211C123.629 66.1211 123.367 66.1016 123.164 66.0625C122.961 66.0234 122.719 65.9688 122.438 65.8984V63.4258C122.523 63.4258 122.613 63.4258 122.707 63.4258C122.801 63.4336 122.891 63.4375 122.977 63.4375C123.422 63.4375 123.785 63.3867 124.066 63.2852C124.348 63.1836 124.574 63.0273 124.746 62.8164C124.918 62.6133 125.055 62.3477 125.156 62.0195L126.105 59.5703ZM124.699 48.3203L127.453 57.5078L127.934 61.082L125.637 61.3281L121.078 48.3203H124.699ZM141.094 58.1406V52.4922C141.094 52.0859 141.027 51.7383 140.895 51.4492C140.762 51.1523 140.555 50.9219 140.273 50.7578C140 50.5938 139.645 50.5117 139.207 50.5117C138.832 50.5117 138.508 50.5781 138.234 50.7109C137.961 50.8359 137.75 51.0195 137.602 51.2617C137.453 51.4961 137.379 51.7734 137.379 52.0938H134.004C134.004 51.5547 134.129 51.043 134.379 50.5586C134.629 50.0742 134.992 49.6484 135.469 49.2812C135.945 48.9062 136.512 48.6133 137.168 48.4023C137.832 48.1914 138.574 48.0859 139.395 48.0859C140.379 48.0859 141.254 48.25 142.02 48.5781C142.785 48.9062 143.387 49.3984 143.824 50.0547C144.27 50.7109 144.492 51.5312 144.492 52.5156V57.9414C144.492 58.6367 144.535 59.207 144.621 59.6523C144.707 60.0898 144.832 60.4727 144.996 60.8008V61H141.586C141.422 60.6562 141.297 60.2266 141.211 59.7109C141.133 59.1875 141.094 58.6641 141.094 58.1406ZM141.539 53.2773L141.562 55.1875H139.676C139.23 55.1875 138.844 55.2383 138.516 55.3398C138.188 55.4414 137.918 55.5859 137.707 55.7734C137.496 55.9531 137.34 56.1641 137.238 56.4062C137.145 56.6484 137.098 56.9141 137.098 57.2031C137.098 57.4922 137.164 57.7539 137.297 57.9883C137.43 58.2148 137.621 58.3945 137.871 58.5273C138.121 58.6523 138.414 58.7148 138.75 58.7148C139.258 58.7148 139.699 58.6133 140.074 58.4102C140.449 58.207 140.738 57.957 140.941 57.6602C141.152 57.3633 141.262 57.082 141.27 56.8164L142.16 58.2461C142.035 58.5664 141.863 58.8984 141.645 59.2422C141.434 59.5859 141.164 59.9102 140.836 60.2148C140.508 60.5117 140.113 60.7578 139.652 60.9531C139.191 61.1406 138.645 61.2344 138.012 61.2344C137.207 61.2344 136.477 61.0742 135.82 60.7539C135.172 60.4258 134.656 59.9766 134.273 59.4062C133.898 58.8281 133.711 58.1719 133.711 57.4375C133.711 56.7734 133.836 56.1836 134.086 55.668C134.336 55.1523 134.703 54.7188 135.188 54.3672C135.68 54.0078 136.293 53.7383 137.027 53.5586C137.762 53.3711 138.613 53.2773 139.582 53.2773H141.539ZM150.398 51.0273V61H147.023V48.3203H150.188L150.398 51.0273ZM149.906 54.2148H148.992C148.992 53.2773 149.113 52.4336 149.355 51.6836C149.598 50.9258 149.938 50.2812 150.375 49.75C150.812 49.2109 151.332 48.8008 151.934 48.5195C152.543 48.2305 153.223 48.0859 153.973 48.0859C154.566 48.0859 155.109 48.1719 155.602 48.3438C156.094 48.5156 156.516 48.7891 156.867 49.1641C157.227 49.5391 157.5 50.0352 157.688 50.6523C157.883 51.2695 157.98 52.0234 157.98 52.9141V61H154.582V52.9023C154.582 52.3398 154.504 51.9023 154.348 51.5898C154.191 51.2773 153.961 51.0586 153.656 50.9336C153.359 50.8008 152.992 50.7344 152.555 50.7344C152.102 50.7344 151.707 50.8242 151.371 51.0039C151.043 51.1836 150.77 51.4336 150.551 51.7539C150.34 52.0664 150.18 52.4336 150.07 52.8555C149.961 53.2773 149.906 53.7305 149.906 54.2148ZM164.273 43.9375V61H160.758V43.9375H164.273ZM171.07 51.2266V53.9688H163.312V51.2266H171.07ZM171.891 43.9375V46.6914H163.312V43.9375H171.891ZM172.922 54.7891V54.543C172.922 53.6133 173.055 52.7578 173.32 51.9766C173.586 51.1875 173.973 50.5039 174.48 49.9258C174.988 49.3477 175.613 48.8984 176.355 48.5781C177.098 48.25 177.949 48.0859 178.91 48.0859C179.871 48.0859 180.727 48.25 181.477 48.5781C182.227 48.8984 182.855 49.3477 183.363 49.9258C183.879 50.5039 184.27 51.1875 184.535 51.9766C184.801 52.7578 184.934 53.6133 184.934 54.543V54.7891C184.934 55.7109 184.801 56.5664 184.535 57.3555C184.27 58.1367 183.879 58.8203 183.363 59.4062C182.855 59.9844 182.23 60.4336 181.488 60.7539C180.746 61.0742 179.895 61.2344 178.934 61.2344C177.973 61.2344 177.117 61.0742 176.367 60.7539C175.625 60.4336 174.996 59.9844 174.48 59.4062C173.973 58.8203 173.586 58.1367 173.32 57.3555C173.055 56.5664 172.922 55.7109 172.922 54.7891ZM176.297 54.543V54.7891C176.297 55.3203 176.344 55.8164 176.438 56.2773C176.531 56.7383 176.68 57.1445 176.883 57.4961C177.094 57.8398 177.367 58.1094 177.703 58.3047C178.039 58.5 178.449 58.5977 178.934 58.5977C179.402 58.5977 179.805 58.5 180.141 58.3047C180.477 58.1094 180.746 57.8398 180.949 57.4961C181.152 57.1445 181.301 56.7383 181.395 56.2773C181.496 55.8164 181.547 55.3203 181.547 54.7891V54.543C181.547 54.0273 181.496 53.543 181.395 53.0898C181.301 52.6289 181.148 52.2227 180.938 51.8711C180.734 51.5117 180.465 51.2305 180.129 51.0273C179.793 50.8242 179.387 50.7227 178.91 50.7227C178.434 50.7227 178.027 50.8242 177.691 51.0273C177.363 51.2305 177.094 51.5117 176.883 51.8711C176.68 52.2227 176.531 52.6289 176.438 53.0898C176.344 53.543 176.297 54.0273 176.297 54.543ZM186.469 54.7891V54.543C186.469 53.6133 186.602 52.7578 186.867 51.9766C187.133 51.1875 187.52 50.5039 188.027 49.9258C188.535 49.3477 189.16 48.8984 189.902 48.5781C190.645 48.25 191.496 48.0859 192.457 48.0859C193.418 48.0859 194.273 48.25 195.023 48.5781C195.773 48.8984 196.402 49.3477 196.91 49.9258C197.426 50.5039 197.816 51.1875 198.082 51.9766C198.348 52.7578 198.48 53.6133 198.48 54.543V54.7891C198.48 55.7109 198.348 56.5664 198.082 57.3555C197.816 58.1367 197.426 58.8203 196.91 59.4062C196.402 59.9844 195.777 60.4336 195.035 60.7539C194.293 61.0742 193.441 61.2344 192.48 61.2344C191.52 61.2344 190.664 61.0742 189.914 60.7539C189.172 60.4336 188.543 59.9844 188.027 59.4062C187.52 58.8203 187.133 58.1367 186.867 57.3555C186.602 56.5664 186.469 55.7109 186.469 54.7891ZM189.844 54.543V54.7891C189.844 55.3203 189.891 55.8164 189.984 56.2773C190.078 56.7383 190.227 57.1445 190.43 57.4961C190.641 57.8398 190.914 58.1094 191.25 58.3047C191.586 58.5 191.996 58.5977 192.48 58.5977C192.949 58.5977 193.352 58.5 193.688 58.3047C194.023 58.1094 194.293 57.8398 194.496 57.4961C194.699 57.1445 194.848 56.7383 194.941 56.2773C195.043 55.8164 195.094 55.3203 195.094 54.7891V54.543C195.094 54.0273 195.043 53.543 194.941 53.0898C194.848 52.6289 194.695 52.2227 194.484 51.8711C194.281 51.5117 194.012 51.2305 193.676 51.0273C193.34 50.8242 192.934 50.7227 192.457 50.7227C191.98 50.7227 191.574 50.8242 191.238 51.0273C190.91 51.2305 190.641 51.5117 190.43 51.8711C190.227 52.2227 190.078 52.6289 189.984 53.0898C189.891 53.543 189.844 54.0273 189.844 54.543ZM208.043 58.2344V43H211.441V61H208.383L208.043 58.2344ZM200.027 54.8125V54.5664C200.027 53.5977 200.137 52.7188 200.355 51.9297C200.574 51.1328 200.895 50.4492 201.316 49.8789C201.738 49.3086 202.258 48.8672 202.875 48.5547C203.492 48.2422 204.195 48.0859 204.984 48.0859C205.727 48.0859 206.375 48.2422 206.93 48.5547C207.492 48.8672 207.969 49.3125 208.359 49.8906C208.758 50.4609 209.078 51.1367 209.32 51.918C209.562 52.6914 209.738 53.5391 209.848 54.4609V55C209.738 55.8828 209.562 56.7031 209.32 57.4609C209.078 58.2188 208.758 58.8828 208.359 59.4531C207.969 60.0156 207.492 60.4531 206.93 60.7656C206.367 61.0781 205.711 61.2344 204.961 61.2344C204.172 61.2344 203.469 61.0742 202.852 60.7539C202.242 60.4336 201.727 59.9844 201.305 59.4062C200.891 58.8281 200.574 58.1484 200.355 57.3672C200.137 56.5859 200.027 55.7344 200.027 54.8125ZM203.402 54.5664V54.8125C203.402 55.3359 203.441 55.8242 203.52 56.2773C203.605 56.7305 203.742 57.1328 203.93 57.4844C204.125 57.8281 204.375 58.0977 204.68 58.293C204.992 58.4805 205.371 58.5742 205.816 58.5742C206.395 58.5742 206.871 58.4453 207.246 58.1875C207.621 57.9219 207.906 57.5586 208.102 57.0977C208.305 56.6367 208.422 56.1055 208.453 55.5039V53.9688C208.43 53.4766 208.359 53.0352 208.242 52.6445C208.133 52.2461 207.969 51.9062 207.75 51.625C207.539 51.3438 207.273 51.125 206.953 50.9688C206.641 50.8125 206.27 50.7344 205.84 50.7344C205.402 50.7344 205.027 50.8359 204.715 51.0391C204.402 51.2344 204.148 51.5039 203.953 51.8477C203.766 52.1914 203.625 52.5977 203.531 53.0664C203.445 53.5273 203.402 54.0273 203.402 54.5664Z" fill="#888888"/>
<path d="M113.18 109.93C113.18 109.398 113.102 108.922 112.945 108.5C112.789 108.062 112.5 107.656 112.078 107.281C111.656 106.906 111.047 106.531 110.25 106.156C109.469 105.766 108.438 105.359 107.156 104.938C105.656 104.438 104.211 103.875 102.82 103.25C101.43 102.609 100.188 101.867 99.0938 101.023C98 100.164 97.1328 99.1641 96.4922 98.0234C95.8516 96.8672 95.5312 95.5234 95.5312 93.9922C95.5312 92.5234 95.8594 91.2031 96.5156 90.0312C97.1719 88.8438 98.0859 87.8359 99.2578 87.0078C100.445 86.1641 101.836 85.5234 103.43 85.0859C105.023 84.6328 106.766 84.4062 108.656 84.4062C111.156 84.4062 113.359 84.8438 115.266 85.7188C117.188 86.5781 118.688 87.8047 119.766 89.3984C120.859 90.9766 121.406 92.8438 121.406 95H113.227C113.227 94.1406 113.047 93.3828 112.688 92.7266C112.344 92.0703 111.82 91.5547 111.117 91.1797C110.414 90.8047 109.531 90.6172 108.469 90.6172C107.438 90.6172 106.57 90.7734 105.867 91.0859C105.164 91.3984 104.633 91.8203 104.273 92.3516C103.914 92.8672 103.734 93.4375 103.734 94.0625C103.734 94.5781 103.875 95.0469 104.156 95.4688C104.453 95.875 104.867 96.2578 105.398 96.6172C105.945 96.9766 106.602 97.3203 107.367 97.6484C108.148 97.9766 109.023 98.2969 109.992 98.6094C111.805 99.1875 113.414 99.8359 114.82 100.555C116.242 101.258 117.438 102.062 118.406 102.969C119.391 103.859 120.133 104.875 120.633 106.016C121.148 107.156 121.406 108.445 121.406 109.883C121.406 111.414 121.109 112.773 120.516 113.961C119.922 115.148 119.07 116.156 117.961 116.984C116.852 117.797 115.523 118.414 113.977 118.836C112.43 119.258 110.703 119.469 108.797 119.469C107.047 119.469 105.32 119.25 103.617 118.812C101.93 118.359 100.398 117.672 99.0234 116.75C97.6484 115.812 96.5469 114.617 95.7188 113.164C94.9062 111.695 94.5 109.953 94.5 107.938H102.75C102.75 108.938 102.883 109.781 103.148 110.469C103.414 111.156 103.805 111.711 104.32 112.133C104.836 112.539 105.469 112.836 106.219 113.023C106.969 113.195 107.828 113.281 108.797 113.281C109.844 113.281 110.688 113.133 111.328 112.836C111.969 112.523 112.438 112.117 112.734 111.617C113.031 111.102 113.18 110.539 113.18 109.93ZM133.031 99.0547V119H125.133V93.6406H132.539L133.031 99.0547ZM132.094 105.453L130.242 105.5C130.242 103.562 130.477 101.836 130.945 100.32C131.414 98.7891 132.078 97.4922 132.938 96.4297C133.797 95.3672 134.82 94.5625 136.008 94.0156C137.211 93.4531 138.547 93.1719 140.016 93.1719C141.188 93.1719 142.258 93.3438 143.227 93.6875C144.211 94.0312 145.055 94.5859 145.758 95.3516C146.477 96.1172 147.023 97.1328 147.398 98.3984C147.789 99.6484 147.984 101.195 147.984 103.039V119H140.039V103.016C140.039 102 139.898 101.227 139.617 100.695C139.336 100.148 138.93 99.7734 138.398 99.5703C137.867 99.3672 137.219 99.2656 136.453 99.2656C135.641 99.2656 134.953 99.4219 134.391 99.7344C133.828 100.047 133.375 100.484 133.031 101.047C132.703 101.594 132.461 102.242 132.305 102.992C132.164 103.742 132.094 104.562 132.094 105.453ZM165.539 112.625V102.172C165.539 101.453 165.438 100.836 165.234 100.32C165.031 99.8047 164.711 99.4062 164.273 99.125C163.836 98.8281 163.25 98.6797 162.516 98.6797C161.922 98.6797 161.414 98.7812 160.992 98.9844C160.57 99.1875 160.25 99.4922 160.031 99.8984C159.812 100.305 159.703 100.82 159.703 101.445H151.805C151.805 100.273 152.062 99.1875 152.578 98.1875C153.109 97.1719 153.859 96.2891 154.828 95.5391C155.812 94.7891 156.984 94.2109 158.344 93.8047C159.719 93.3828 161.25 93.1719 162.938 93.1719C164.953 93.1719 166.75 93.5078 168.328 94.1797C169.922 94.8516 171.18 95.8594 172.102 97.2031C173.023 98.5312 173.484 100.203 173.484 102.219V112.602C173.484 114.258 173.578 115.516 173.766 116.375C173.953 117.219 174.219 117.961 174.562 118.602V119H166.641C166.266 118.219 165.984 117.266 165.797 116.141C165.625 115 165.539 113.828 165.539 112.625ZM166.5 103.508L166.547 107.727H163.055C162.32 107.727 161.695 107.828 161.18 108.031C160.68 108.234 160.273 108.516 159.961 108.875C159.664 109.219 159.445 109.609 159.305 110.047C159.18 110.484 159.117 110.945 159.117 111.43C159.117 111.898 159.227 112.32 159.445 112.695C159.68 113.055 159.992 113.336 160.383 113.539C160.773 113.742 161.211 113.844 161.695 113.844C162.57 113.844 163.312 113.68 163.922 113.352C164.547 113.008 165.023 112.594 165.352 112.109C165.68 111.625 165.844 111.172 165.844 110.75L167.578 113.984C167.266 114.609 166.906 115.242 166.5 115.883C166.109 116.523 165.617 117.117 165.023 117.664C164.445 118.195 163.734 118.633 162.891 118.977C162.047 119.305 161.023 119.469 159.82 119.469C158.258 119.469 156.82 119.148 155.508 118.508C154.211 117.867 153.172 116.977 152.391 115.836C151.609 114.68 151.219 113.352 151.219 111.852C151.219 110.539 151.453 109.367 151.922 108.336C152.406 107.305 153.133 106.43 154.102 105.711C155.07 104.992 156.305 104.445 157.805 104.07C159.305 103.695 161.07 103.508 163.102 103.508H166.5ZM185.836 98.5156V128.75H177.938V93.6406H185.297L185.836 98.5156ZM201.398 106.016V106.508C201.398 108.352 201.188 110.062 200.766 111.641C200.344 113.219 199.719 114.594 198.891 115.766C198.062 116.938 197.031 117.852 195.797 118.508C194.578 119.148 193.164 119.469 191.555 119.469C190.039 119.469 188.734 119.133 187.641 118.461C186.547 117.789 185.633 116.859 184.898 115.672C184.164 114.484 183.57 113.125 183.117 111.594C182.664 110.062 182.305 108.445 182.039 106.742V106.109C182.305 104.281 182.664 102.586 183.117 101.023C183.57 99.4453 184.164 98.0703 184.898 96.8984C185.633 95.7266 186.539 94.8125 187.617 94.1562C188.711 93.5 190.016 93.1719 191.531 93.1719C193.141 93.1719 194.555 93.4766 195.773 94.0859C197.008 94.6953 198.039 95.5703 198.867 96.7109C199.711 97.8359 200.344 99.1875 200.766 100.766C201.188 102.344 201.398 104.094 201.398 106.016ZM193.5 106.508V106.016C193.5 105.031 193.43 104.133 193.289 103.32C193.148 102.492 192.922 101.773 192.609 101.164C192.312 100.555 191.914 100.086 191.414 99.7578C190.914 99.4297 190.297 99.2656 189.562 99.2656C188.719 99.2656 188.008 99.3984 187.43 99.6641C186.867 99.9141 186.414 100.305 186.07 100.836C185.742 101.352 185.508 102 185.367 102.781C185.242 103.547 185.188 104.445 185.203 105.477V107.398C185.172 108.586 185.289 109.633 185.555 110.539C185.82 111.43 186.281 112.125 186.938 112.625C187.594 113.125 188.484 113.375 189.609 113.375C190.359 113.375 190.984 113.203 191.484 112.859C191.984 112.5 192.383 112.008 192.68 111.383C192.977 110.742 193.188 110.008 193.312 109.18C193.438 108.352 193.5 107.461 193.5 106.508ZM218.203 111.875C218.203 111.438 218.055 111.062 217.758 110.75C217.477 110.422 216.977 110.125 216.258 109.859C215.539 109.578 214.531 109.297 213.234 109.016C212 108.75 210.836 108.398 209.742 107.961C208.664 107.523 207.719 106.992 206.906 106.367C206.094 105.742 205.453 105 204.984 104.141C204.531 103.281 204.305 102.297 204.305 101.188C204.305 100.109 204.531 99.0938 204.984 98.1406C205.453 97.1719 206.133 96.3203 207.023 95.5859C207.93 94.8359 209.031 94.25 210.328 93.8281C211.625 93.3906 213.102 93.1719 214.758 93.1719C217.039 93.1719 219.008 93.5234 220.664 94.2266C222.32 94.9141 223.594 95.8828 224.484 97.1328C225.391 98.3672 225.844 99.7969 225.844 101.422H217.945C217.945 100.781 217.836 100.234 217.617 99.7812C217.414 99.3281 217.078 98.9844 216.609 98.75C216.141 98.5 215.516 98.375 214.734 98.375C214.188 98.375 213.688 98.4766 213.234 98.6797C212.797 98.8828 212.445 99.1641 212.18 99.5234C211.914 99.8828 211.781 100.305 211.781 100.789C211.781 101.133 211.859 101.445 212.016 101.727C212.188 101.992 212.445 102.242 212.789 102.477C213.133 102.695 213.57 102.898 214.102 103.086C214.633 103.258 215.273 103.414 216.023 103.555C217.727 103.867 219.32 104.312 220.805 104.891C222.289 105.469 223.492 106.289 224.414 107.352C225.352 108.414 225.82 109.844 225.82 111.641C225.82 112.766 225.562 113.805 225.047 114.758C224.531 115.695 223.789 116.523 222.82 117.242C221.852 117.945 220.688 118.492 219.328 118.883C217.969 119.273 216.438 119.469 214.734 119.469C212.312 119.469 210.266 119.039 208.594 118.18C206.922 117.305 205.656 116.211 204.797 114.898C203.953 113.57 203.531 112.227 203.531 110.867H210.891C210.922 111.648 211.109 112.289 211.453 112.789C211.812 113.289 212.289 113.656 212.883 113.891C213.477 114.125 214.164 114.242 214.945 114.242C215.664 114.242 216.258 114.141 216.727 113.938C217.211 113.734 217.578 113.461 217.828 113.117C218.078 112.758 218.203 112.344 218.203 111.875ZM237.258 83V119H229.359V83H237.258ZM236.32 105.453L234.469 105.5C234.469 103.719 234.688 102.078 235.125 100.578C235.562 99.0781 236.188 97.7734 237 96.6641C237.812 95.5547 238.789 94.6953 239.93 94.0859C241.07 93.4766 242.336 93.1719 243.727 93.1719C244.977 93.1719 246.117 93.3516 247.148 93.7109C248.195 94.0703 249.094 94.6484 249.844 95.4453C250.609 96.2422 251.195 97.2812 251.602 98.5625C252.023 99.8438 252.234 101.406 252.234 103.25V119H244.289V103.203C244.289 102.172 244.141 101.375 243.844 100.812C243.562 100.234 243.156 99.8359 242.625 99.6172C242.094 99.3828 241.445 99.2656 240.68 99.2656C239.758 99.2656 239.008 99.4219 238.43 99.7344C237.852 100.047 237.406 100.484 237.094 101.047C236.797 101.594 236.594 102.242 236.484 102.992C236.375 103.742 236.32 104.562 236.32 105.453ZM255.633 106.578V106.086C255.633 104.227 255.898 102.516 256.43 100.953C256.961 99.375 257.742 98.0078 258.773 96.8516C259.805 95.6953 261.078 94.7969 262.594 94.1562C264.109 93.5 265.859 93.1719 267.844 93.1719C269.844 93.1719 271.602 93.5 273.117 94.1562C274.648 94.7969 275.93 95.6953 276.961 96.8516C277.992 98.0078 278.773 99.375 279.305 100.953C279.836 102.516 280.102 104.227 280.102 106.086V106.578C280.102 108.422 279.836 110.133 279.305 111.711C278.773 113.273 277.992 114.641 276.961 115.812C275.93 116.969 274.656 117.867 273.141 118.508C271.625 119.148 269.875 119.469 267.891 119.469C265.906 119.469 264.148 119.148 262.617 118.508C261.086 117.867 259.805 116.969 258.773 115.812C257.742 114.641 256.961 113.273 256.43 111.711C255.898 110.133 255.633 108.422 255.633 106.578ZM263.531 106.086V106.578C263.531 107.531 263.602 108.422 263.742 109.25C263.883 110.078 264.117 110.805 264.445 111.43C264.773 112.039 265.219 112.516 265.781 112.859C266.344 113.203 267.047 113.375 267.891 113.375C268.719 113.375 269.406 113.203 269.953 112.859C270.516 112.516 270.961 112.039 271.289 111.43C271.617 110.805 271.852 110.078 271.992 109.25C272.133 108.422 272.203 107.531 272.203 106.578V106.086C272.203 105.164 272.133 104.297 271.992 103.484C271.852 102.656 271.617 101.93 271.289 101.305C270.961 100.664 270.516 100.164 269.953 99.8047C269.391 99.4453 268.688 99.2656 267.844 99.2656C267.016 99.2656 266.32 99.4453 265.758 99.8047C265.211 100.164 264.773 100.664 264.445 101.305C264.117 101.93 263.883 102.656 263.742 103.484C263.602 104.297 263.531 105.164 263.531 106.086ZM296.977 93.6406V99.125H281.695V93.6406H296.977ZM284.906 87.3359H292.805V110.727C292.805 111.398 292.883 111.922 293.039 112.297C293.195 112.656 293.461 112.914 293.836 113.07C294.227 113.211 294.742 113.281 295.383 113.281C295.836 113.281 296.211 113.273 296.508 113.258C296.805 113.227 297.086 113.188 297.352 113.141V118.789C296.68 119.008 295.977 119.172 295.242 119.281C294.508 119.406 293.727 119.469 292.898 119.469C291.211 119.469 289.766 119.203 288.562 118.672C287.375 118.141 286.469 117.305 285.844 116.164C285.219 115.023 284.906 113.539 284.906 111.711V87.3359ZM313.406 111.875C313.406 111.438 313.258 111.062 312.961 110.75C312.68 110.422 312.18 110.125 311.461 109.859C310.742 109.578 309.734 109.297 308.438 109.016C307.203 108.75 306.039 108.398 304.945 107.961C303.867 107.523 302.922 106.992 302.109 106.367C301.297 105.742 300.656 105 300.188 104.141C299.734 103.281 299.508 102.297 299.508 101.188C299.508 100.109 299.734 99.0938 300.188 98.1406C300.656 97.1719 301.336 96.3203 302.227 95.5859C303.133 94.8359 304.234 94.25 305.531 93.8281C306.828 93.3906 308.305 93.1719 309.961 93.1719C312.242 93.1719 314.211 93.5234 315.867 94.2266C317.523 94.9141 318.797 95.8828 319.688 97.1328C320.594 98.3672 321.047 99.7969 321.047 101.422H313.148C313.148 100.781 313.039 100.234 312.82 99.7812C312.617 99.3281 312.281 98.9844 311.812 98.75C311.344 98.5 310.719 98.375 309.938 98.375C309.391 98.375 308.891 98.4766 308.438 98.6797C308 98.8828 307.648 99.1641 307.383 99.5234C307.117 99.8828 306.984 100.305 306.984 100.789C306.984 101.133 307.062 101.445 307.219 101.727C307.391 101.992 307.648 102.242 307.992 102.477C308.336 102.695 308.773 102.898 309.305 103.086C309.836 103.258 310.477 103.414 311.227 103.555C312.93 103.867 314.523 104.312 316.008 104.891C317.492 105.469 318.695 106.289 319.617 107.352C320.555 108.414 321.023 109.844 321.023 111.641C321.023 112.766 320.766 113.805 320.25 114.758C319.734 115.695 318.992 116.523 318.023 117.242C317.055 117.945 315.891 118.492 314.531 118.883C313.172 119.273 311.641 119.469 309.938 119.469C307.516 119.469 305.469 119.039 303.797 118.18C302.125 117.305 300.859 116.211 300 114.898C299.156 113.57 298.734 112.227 298.734 110.867H306.094C306.125 111.648 306.312 112.289 306.656 112.789C307.016 113.289 307.492 113.656 308.086 113.891C308.68 114.125 309.367 114.242 310.148 114.242C310.867 114.242 311.461 114.141 311.93 113.938C312.414 113.734 312.781 113.461 313.031 113.117C313.281 112.758 313.406 112.344 313.406 111.875Z" fill="black"/>
<path d="M1134 0H1348C1356.28 0 1363 6.71573 1363 15V148C1363 156.284 1356.28 163 1348 163H1134V0Z" fill="#E67E22"/>
<path fill-rule="evenodd" clip-rule="evenodd" d="M1202.75 46.5018C1202.75 45.3973 1203.65 44.5018 1204.75 44.5018H1292.25C1293.35 44.5018 1294.25 45.3973 1294.25 46.5018V116.498C1294.25 117.603 1293.35 118.498 1292.25 118.498H1204.75C1203.65 118.498 1202.75 117.603 1202.75 116.498V46.5018ZM1206.75 48.5018V52.9963H1290.25V48.5018H1206.75ZM1290.25 56.9963H1235.19V114.498H1290.25V56.9963ZM1231.19 114.498V56.9963H1206.75V114.498H1231.19Z" fill="white"/>
<path fill-rule="evenodd" clip-rule="evenodd" d="M1209.72 62.3022C1209.72 61.1976 1210.62 60.3022 1211.72 60.3022H1225.72C1226.83 60.3022 1227.72 61.1976 1227.72 62.3022V81.6974C1227.72 82.802 1226.83 83.6974 1225.72 83.6974H1211.72C1210.62 83.6974 1209.72 82.802 1209.72 81.6974V62.3022ZM1213.72 64.3022V79.6974H1223.72V64.3022H1213.72ZM1239.33 63.1982C1239.33 62.0936 1240.22 61.1982 1241.33 61.1982H1284.25C1285.36 61.1982 1286.25 62.0936 1286.25 63.1982V109.407C1286.25 110.511 1285.36 111.407 1284.25 111.407H1241.33C1240.22 111.407 1239.33 110.511 1239.33 109.407V63.1982ZM1243.33 65.1982V107.407H1282.25V65.1982H1243.33ZM1209.56 93.4381C1209.56 92.3336 1210.46 91.4381 1211.56 91.4381H1220.48C1221.59 91.4381 1222.48 92.3336 1222.48 93.4381C1222.48 94.5427 1221.59 95.4381 1220.48 95.4381H1211.56C1210.46 95.4381 1209.56 94.5427 1209.56 93.4381ZM1209.56 100.438C1209.56 99.3335 1210.46 98.4381 1211.56 98.4381H1226.1C1227.21 98.4381 1228.1 99.3335 1228.1 100.438C1228.1 101.543 1227.21 102.438 1226.1 102.438H1211.56C1210.46 102.438 1209.56 101.543 1209.56 100.438ZM1209.56 107.438C1209.56 106.334 1210.46 105.438 1211.56 105.438H1220.48C1221.59 105.438 1222.48 106.334 1222.48 107.438C1222.48 108.543 1221.59 109.438 1220.48 109.438H1211.56C1210.46 109.438 1209.56 108.543 1209.56 107.438Z" fill="white"/>
</svg>
